<svg xmlns="http://www.w3.org/2000/svg" fill="none" viewBox="0 0 600 600"><path fill="#000" d="M202.4 0q-4.5 0-10 4.1c-9.1-3.5-18-4.7-25.8 2.5-12.2-1.6-16.1 1.6-19.1 5.4-2.7 0-20-2.7-27.9 9.1-20-2.3-26.2 11.7-19.1 24.9-4 6.3-8.3 12.5 1.2 24.5-3.3 6.7-1.2 14 6.7 22.8-2.1 9.4 2 16 9.4 21.2-1.4 12.9 11.8 20.4 15.7 23 1.5 7.5 4.7 14.6 19.8 18.5 2.4 11.2 11.5 13.1 20.3 15.5-29 16.8-53.9 39-53.7 93.3l-4.2 7.6c-33.3 20.2-63.1 85.2-16.4 138 3 16.5 8.2 28.3 12.7 41.5 6.8 52.9 51.3 77.7 63 80.6a213 213 0 0 0 60.4 34.2c23.4 24.1 48.7 33.3 74.1 33.3.4 0 52-9.2 75.3-33.3a213 213 0 0 0 60.3-34.2c11.7-3 56.2-27.7 63-80.6 4.6-13.2 9.7-25 12.8-41.6 46.7-52.8 16.8-117.7-16.4-137.9l-4.2-7.6c.1-54.3-24.7-76.5-53.7-93.3 8.8-2.4 17.8-4.3 20.3-15.5 15-4 18.2-11 19.7-18.5 4-2.7 17.2-10.1 15.8-23 7.4-5.2 11.5-11.8 9.4-21.2 8-8.8 10-16 6.7-22.8 9.5-12 5.2-18.2 1.2-24.5 7.1-13.2.8-27.2-19.1-24.9-8-11.8-25.2-9.1-28-9-3-3.9-6.9-7.1-19-5.5-7.9-7.2-16.7-6-25.8-2.5-10.8-8.5-17.9-1.6-26 1-13-4.3-16 1.5-22.5 3.9-14.2-3-18.5 3.5-25.4 10.4l-8-.1c-21.4 12.6-32 38.4-35.8 51.6-3.8-13.2-14.4-39-36-51.6l-7.9.1C259.4 12.5 255.1 6 241 9c-6.5-2.4-9.4-8.2-22.5-4-5.3-1.7-10.3-5.2-16-5L55 258.8"/><path fill="#75A928" d="M159.6 55.7c57 29.3 90 53.1 108.2 73.3-9.3 37.3-57.7 39-75.4 38 3.6-1.8 6.6-3.8 7.7-6.9-4.5-3.2-20.2-.3-31.2-6.5 4.2-.9 6.2-1.7 8.1-4.9-10.4-3.3-21.6-6.1-28.1-11.6 3.5 0 6.8.8 11.5-2.5-9.3-5-19.3-9-27-16.6 4.8-.1 10 0 11.5-1.8a104 104 0 0 1-21.7-17.6c6.8.8 9.6 0 11.3-1-6.5-6.7-14.6-12.3-18.5-20.4 5 1.7 9.5 2.4 12.8-.2-2.1-4.9-11.5-7.8-17-19.4 5.3.6 11 1.2 12 0-2.4-10-6.6-15.5-10.7-21.3 11.3-.2 28.3 0 27.6-1l-7-7c11-3 22.3.4 30.5 3 3.6-3-.1-6.6-4.6-10.3q14 1.9 25.5 6.3c4-3.6-2.7-7.3-6-11a65 65 0 0 1 26.7 10.4c4.5-4.2.3-7.8-2.7-11.5 11 4 16.5 9.3 22.4 14.4 2-2.7 5.1-4.7 1.4-11.2A57 57 0 0 1 244.8 34c4.8-3 2.9-7.2 2.9-11 8 6.5 13.1 13.5 19.4 20.3q1.8-1.5 3.3-9c19.2 18.6 46.3 65.5 7 84.1a369 369 0 0 0-117.8-62.7m302.2 0c-56.9 29.3-90 53-108.2 73.3 9.3 37.3 57.8 39 75.5 38-3.6-1.8-6.6-3.8-7.7-6.9 4.4-3.2 20.2-.3 31.2-6.5-4.2-.9-6.2-1.7-8.2-4.9 10.4-3.3 21.6-6.1 28.2-11.6-3.5 0-6.9.8-11.5-2.5 9.3-5 19.3-9 27-16.6-4.8-.2-10 0-11.5-1.9q12.8-7.9 21.6-17.5c-6.7.8-9.6 0-11.2-1.1 6.5-6.6 14.6-12.2 18.5-20.3-5 1.7-9.6 2.4-12.9-.2 2.2-4.9 11.6-7.8 17-19.4-5.3.6-10.9 1.2-12 0 2.5-10 6.7-15.5 10.8-21.3-11.3-.2-28.4 0-27.6-1l7-7a55 55 0 0 0-30.5 3c-3.7-3 0-6.6 4.6-10.3q-14.1 1.9-25.5 6.3c-4-3.7 2.6-7.3 6-11a65 65 0 0 0-26.8 10.4c-4.4-4.2-.2-7.8 2.8-11.5-11 4-16.6 9.3-22.5 14.4-2-2.7-5-4.7-1.3-11.2a57 57 0 0 0-18 15.6c-4.7-3-2.8-7.2-2.8-11-8 6.5-13.2 13.4-19.4 20.2q-2-1.5-3.3-8.9c-19.2 18.6-46.4 65.5-7 84.1a368 368 0 0 1 117.8-62.7"/><path fill="#BC1142" d="M379.7 434.8c.2 34.8-30.2 63.1-67.9 63.3-37.6.2-68.3-27.8-68.5-62.6v-.7c-.2-34.7 30.1-63 67.8-63.2s68.4 27.8 68.6 62.6zM272 255.1c28.3 18.5 33.4 60.5 11.4 93.8s-62.7 45.2-91 26.7-33.4-60.5-11.4-93.8 62.7-45.2 91-26.7m76.3-3.3C320 270.3 315 312.3 337 345.5s62.8 45.3 91 26.7 33.4-60.5 11.4-93.7-62.7-45.3-91-26.7m-217.7 33.6c30.5-8.2 10.3 126.3-14.5 115.2-27.3-22-36.1-86.3 14.5-115.2m352.7-1.7C453 275.5 473.1 410 498 399c27.3-22 36-86.4-14.6-115.3M379.7 183.6c52.7-8.9 96.5 22.4 94.8 79.5-1.8 22-114.2-76.2-94.8-79.5M234.2 182c-52.7-9-96.5 22.3-94.7 79.4 1.7 22 114.1-76.2 94.7-79.5m75.7-13.3c-31.5-.8-61.6 23.3-61.7 37.3-.1 17 24.8 34.5 61.9 35 37.8.2 62-14 62-31.6.2-19.9-34.3-41-62.2-40.7m1.9 349c27.4-1.2 64.2 8.9 64.2 22.2.5 12.9-33.3 42-66 41.5-34 1.5-67.2-27.8-66.7-37.9-.5-14.9 41.2-26.4 68.5-25.8m-101.3-78.8c19.6 23.5 28.5 64.8 12.2 77-15.4 9.3-52.9 5.5-79.5-32.7-17.9-32-15.6-64.7-3-74.3 18.8-11.5 48 4 70.3 30m198.6-7.4c-21.1 24.7-32.9 69.8-17.5 84.3 14.8 11.3 54.3 9.7 83.5-30.8 21.2-27.2 14.1-72.6 2-84.7-18-14-43.8 3.9-68 31.2"/></svg>